<svg fill="none" height="60" viewBox="0 0 362 60" width="362" xmlns="http://www.w3.org/2000/svg"><g fill="#253e77"><path d="m89.3649 48.0003h-4.5882c-.4941 0-.7059-.2824-.7059-.7765v-34.5176c0-.4942.2118-.7765.7059-.7765h5.5059c.4235 0 .6353.2118.7764.5647l6.1412 11.4353c1.2706 2.4 2.6824 5.3647 4.3058 8.8235h.212c1.553-3.5294 3.035-6.4941 4.306-8.8235l6.07-11.4353c.212-.3529.494-.5647.847-.5647h5.436c.494 0 .776.2823.776.7765v34.5176c0 .4941-.282.7765-.776.7765h-4.589c-.494 0-.705-.2824-.705-.7765v-10.1647c0-3.9529.141-9.2471.423-15.8118l-.141-.0706c-.988 2.1883-2.541 5.2942-4.518 9.3177l-4.447 8.6118c-.141.3529-.423.5647-.847.5647h-3.8116c-.4235 0-.7059-.2118-.8471-.5647l-4.447-8.6118c-2.0471-4.0235-3.5294-7.1294-4.5177-9.3177l-.1412.0706c.2824 6.5647.4236 11.8589.4236 15.8118v10.1647c-.1412.4941-.353.7765-.8471.7765z"/><path d="m147.106 38.3997c0 3.1059-1.059 5.5765-3.106 7.4118s-4.871 2.7529-8.329 2.7529c-3.459 0-6.283-.9176-8.33-2.7529s-3.106-4.3059-3.106-7.4118v-6.7058c0-3.1765 1.059-5.6471 3.106-7.553s4.871-2.8235 8.33-2.8235c3.458 0 6.282.9176 8.329 2.8235s3.106 4.3765 3.106 7.553zm-17.082 0c0 3.3177 1.835 4.9412 5.576 4.9412 1.835 0 3.177-.4235 4.165-1.2706.988-.847 1.412-2.047 1.412-3.6706v-6.7058c0-1.6236-.495-2.8942-1.483-3.8118-.988-.9177-2.329-1.3412-4.094-1.3412-1.835 0-3.176.4235-4.165 1.3412-.988.847-1.411 2.1176-1.411 3.8118z"/><path d="m154.659 54.7059h-4.094c-.494 0-.706-.2118-.706-.7059v-10.5177c0-.4941.212-.7059.706-.7059h1.129c1.13-.7764 1.977-2.5411 2.541-5.2235.636-2.7529 1.2-7.6941 1.765-14.9647.071-.4941.353-.7059.777-.7059h16.729c.494 0 .776.2118.776.7059v20.1882h2.542c.494 0 .776.2824.776.7765v10.4471c0 .4941-.282.7059-.776.7059h-4.095c-.494 0-.776-.2118-.776-.7059v-6h-16.518v6.0706c0 .4235-.282.6353-.776.6353zm6.776-27.6706c-.706 8.3294-1.835 13.5529-3.458 15.8117h10.447v-15.8117z"/><path d="m197.365 40.8706v-18.2824c0-.4941.282-.7059.776-.7059h4.306c.494 0 .777.2118.777.7059v23.7177c0 7.8352-3.742 11.7176-11.224 11.7176-4.023 0-7.341-1.0588-9.882-3.1765-.353-.2823-.424-.6353-.141-.9882l2.188-3.0353c.282-.4235.565-.4941.988-.2824 2.259 1.553 4.518 2.3295 6.847 2.3295 1.906 0 3.318-.4942 4.235-1.4824.918-.9882 1.342-2.6823 1.271-5.0823-1.976.6352-3.741.9176-5.365.9176-2.894 0-5.364-.9176-7.553-2.6824-2.117-1.7647-3.247-4.3058-3.247-7.5529v-14.4c0-.4941.283-.7059.777-.7059h4.376c.494 0 .706.2118.706.7059v14.1177c0 1.8352.565 3.1058 1.624 3.9529 1.058.8471 2.47 1.2706 4.094 1.2706 1.694 0 3.176-.353 4.447-1.0588z"/><path d="m216.988 39.3884c-.635 3.1765-1.624 5.4353-2.894 6.7059-1.341 1.2706-3.388 1.9765-6.212 2.1177-.494 0-.706-.2824-.706-.7765v-3.6706c0-.4235.212-.7059.706-.7765.988-.0706 1.765-.4941 2.259-1.2.565-.7059.988-2.047 1.412-3.9529.564-3.3177.988-8.4 1.27-15.1765.071-.4941.353-.7059.777-.7059h17.082c.494 0 .777.2118.777.7059v24.6353c0 .4941-.283.7765-.777.7765h-4.306c-.494 0-.776-.2824-.776-.7765v-20.2588h-7.341c-.283 4.8-.636 8.8941-1.271 12.3529z"/><path d="m247.623 48h-10.447c-.494 0-.776-.2824-.776-.7765v-24.6353c0-.4941.282-.7059.776-.7059h4.306c.494 0 .777.2118.777.7059v7.7647h5.364c3.106 0 5.577.7765 7.483 2.3294 1.906 1.553 2.823 3.7412 2.823 6.5647 0 2.9647-.917 5.153-2.753 6.5647-1.835 1.4824-4.306 2.1883-7.553 2.1883zm-5.364-12.8471v7.9765h4.306c3.6 0 5.435-1.3412 5.435-3.953 0-1.3411-.424-2.4-1.341-3.0353-.918-.6352-2.259-.9882-4.094-.9882z"/><path d="m265.836 26.4003h9.458c4.094 0 7.2.847 9.106 2.6117 1.977 1.7647 2.965 4.4471 2.965 8.1177 0 3.4588-1.059 6.1412-3.177 8.047-2.117 1.8353-5.011 2.8236-8.682 2.8236h-12.141c-.282 0-.424-.1412-.424-.4236v-35.2235c0-.2823.142-.4235.424-.4235h21.176c.283 0 .424.1412.424.4235v1.7647c0 .2824-.141.4236-.424.4236h-18.776v11.8588zm0 18.9882h9.741c2.894 0 5.153-.7059 6.706-2.047 1.553-1.3412 2.329-3.4589 2.329-6.2118 0-2.8235-.706-4.8706-2.188-6.2118-1.483-1.3412-3.812-1.9764-6.988-1.9764h-9.53v16.447z"/><path d="m292.306 24.0707c2.471-1.7647 5.577-2.6117 9.177-2.6117 3.105 0 5.435.847 7.129 2.4706 1.694 1.6235 2.471 4.0235 2.471 7.0588v15.3176c0 .2118-.142.4236-.353.4942-2.965 1.1294-6.071 1.6941-9.389 1.6941-3.035 0-5.576-.7059-7.553-2.1177-1.976-1.4117-2.964-3.3882-2.964-6.0706 0-2.5411.917-4.5176 2.823-5.8588s4.447-2.047 7.765-2.047c1.765 0 4.094.2823 7.059.7764v-2.1176c0-4.7294-2.33-7.0588-7.059-7.0588-2.894 0-5.506.7058-7.694 2.047-.212.1412-.353.1412-.565-.0706l-.847-1.3411c-.141-.2824-.141-.4236 0-.5648zm1.271 16.3059c0 1.7647.706 3.1765 2.188 4.2353 1.412.9883 3.318 1.553 5.718 1.553 2.329 0 4.658-.4236 7.058-1.2v-9.4589c-2.329-.4941-4.658-.7764-7.058-.7764-5.295 0-7.906 1.9059-7.906 5.647z"/><path d="m318.494 48.0001h-1.835c-.282 0-.424-.1412-.424-.4235v-25.0588c0-.2824.142-.4236.424-.4236h1.835c.283 0 .424.1412.424.4236v10.8h14.4v-10.8c0-.2824.141-.4236.423-.4236h1.836c.282 0 .423.1412.423.4236v25.0588c0 .2823-.141.4235-.423.4235h-1.836c-.282 0-.423-.1412-.423-.4235v-11.8588h-14.4v11.8588c0 .2823-.141.4235-.424.4235z"/><path d="m361.2 48.0002h-2.259c-.211 0-.353-.0706-.494-.2824l-10.941-12.3529-3.812 3.5294v8.6118c0 .2823-.141.4235-.423.4235h-1.765c-.282 0-.423-.1412-.423-.4235v-25.0589c0-.2823.141-.4235.423-.4235h1.765c.282 0 .423.1412.423.4235v13.2l13.977-13.4823c.141-.1412.282-.2118.564-.2118h2.259c.141 0 .283.0706.353.1412.071.0706 0 .2118-.141.3529l-11.435 11.0824 12.141 13.9059c.282.3529.071.5647-.212.5647z"/><path clip-rule="evenodd" d="m0 0h12v12h12v12h12v12h-12v12h-12v12h-12v-12-12h12v-12h-12v-12zm36 48v-12h12v12zm12 0h12v12h-12zm-12 0h-12v12h12zm12-12v-12h-12v-12h-12v-12h12 12v12h12v12 12z" fill-rule="evenodd"/></g></svg>